<svg width="167" height="25" viewBox="0 0 167 25" fill="none" xmlns="http://www.w3.org/2000/svg">
<path d="M157.562 24.678L145.562 12.678L158.062 0.177979H166.562L154.062 12.678L166.062 24.678H157.562Z" fill="black"/>
<path d="M136.762 24.678L124.762 12.678L137.362 0.177979H145.762L133.262 12.678L145.262 24.678H136.762Z" fill="black"/>
<path d="M116.062 24.678L104.062 12.678L116.562 0.177979H125.062L112.562 12.678L124.562 24.678H116.062Z" fill="black"/>
<path d="M95.2625 24.678L83.2625 12.678L95.8625 0.177979H104.262L91.7625 12.678L103.762 24.678H95.2625Z" fill="black"/>
<path d="M74.2625 24.678L62.3625 12.678L74.8625 0.177979H83.2625L70.7625 12.678L82.7625 24.678H74.2625Z" fill="black"/>
<path d="M53.5625 24.678L41.5625 12.678L54.0625 0.177979H62.5625L50.0625 12.678L62.0625 24.678H53.5625Z" fill="black"/>
<path d="M32.7625 24.678L20.8625 12.678L33.3625 0.177979H41.7625L29.2625 12.678L41.2625 24.678H32.7625Z" fill="black"/>
<path d="M12.0625 24.678L0.0625 12.678L12.5625 0.177979H21.0625L8.5625 12.678L20.5625 24.678H12.0625Z" fill="black"/>
</svg>
