<svg width="142" height="123" viewBox="0 0 142 123" fill="none" xmlns="http://www.w3.org/2000/svg">
<path d="M141.407 61.3579H71.2073L36.1073 0.657898H106.307L141.407 61.3579Z" stroke="#F9F9F9" stroke-miterlimit="10" stroke-linejoin="round"/>
<path d="M141.407 61.3579H71.2073L36.1073 122.158H106.307L141.407 61.3579Z" stroke="#F9F9F9" stroke-miterlimit="10" stroke-linejoin="round"/>
<path d="M50.4073 25.4579H91.9073L112.707 61.3579L91.9073 97.3579H50.4073L29.6073 61.3579L50.4073 25.4579Z" fill="black"/>
<path d="M36.1073 0.657898H106.307L141.407 61.3579L106.307 122.158H36.1073L1.00732 61.3579L36.1073 0.657898Z" stroke="#F9F9F9" stroke-miterlimit="10" stroke-linejoin="round"/>
<path d="M106.307 0.657898L71.2073 61.3579L106.307 122.158L141.407 61.3579L106.307 0.657898Z" stroke="#F9F9F9" stroke-miterlimit="10" stroke-linejoin="round"/>
<path d="M71.2073 61.3579H1.00732L36.1073 122.158H106.307L71.2073 61.3579Z" stroke="#F9F9F9" stroke-miterlimit="10" stroke-linecap="round" stroke-linejoin="round"/>
</svg>
