<svg width="26" height="50" viewBox="0 0 26 50" fill="none" xmlns="http://www.w3.org/2000/svg">
<path d="M13.9907 46.6191C15.858 44.7519 15.858 41.7245 13.9907 39.8573C12.1235 37.9901 9.09615 37.9901 7.22893 39.8573C5.36171 41.7245 5.36171 44.7519 7.22893 46.6191C9.09615 48.4863 12.1235 48.4863 13.9907 46.6191Z" stroke="black" stroke-width="3" stroke-miterlimit="10"/>
<path d="M12.6582 0C5.67877 0 0 5.6782 0 12.6579C0 13.4222 0.622079 14.044 1.3864 14.044C2.15073 14.044 2.77281 13.4225 2.77281 12.6579C2.77281 7.20713 7.20742 2.77252 12.6582 2.77252C18.109 2.77252 22.5433 7.20713 22.5433 12.6579C22.5433 16.2748 21.0229 17.7589 19.2611 19.4775C17.3478 21.3451 15.1789 23.4621 15.1789 28.1693C15.1789 30.6775 13.138 32.718 10.6301 32.718C8.12222 32.718 6.08194 30.6775 6.08194 28.1693C6.08194 27.4049 5.46015 26.7829 4.69554 26.7829C3.93122 26.7829 3.30914 27.4047 3.30914 28.1693C3.30914 32.2061 6.59329 35.4905 10.6301 35.4905C14.667 35.4905 17.9517 32.2061 17.9517 28.1693C17.9517 24.6296 19.4565 23.1614 21.1992 21.4607C23.129 19.5771 25.3161 17.4429 25.3161 12.6579C25.3161 5.6782 19.6379 0 12.6582 0Z" fill="black"/>
<path d="M13.2187 6.74377C9.85615 6.74377 7.11316 9.47938 7.11316 12.8416V14.5798C7.11316 14.5841 6.99846 14.5855 6.93684 14.5917C6.48001 14.64 6.15265 15.0491 6.20091 15.5062C6.24918 15.9634 6.6657 16.2978 7.11742 16.2462C7.75653 16.1786 8.38827 16.3177 8.94277 16.6465C10.3522 17.4826 10.8184 19.3097 9.98222 20.7188C9.14521 22.1279 7.31872 22.5936 5.91046 21.7577C5.51552 21.5235 5.00502 21.6541 4.7705 22.0484C4.53598 22.4434 4.6663 22.9536 5.06124 23.1884C5.80143 23.6276 6.61516 23.8363 7.41895 23.8363C9.00268 23.8363 10.5481 23.0257 11.4132 21.5677C12.0449 20.5027 12.2244 19.2555 11.9183 18.0562C11.6122 16.8563 10.8488 15.8478 9.78432 15.2158C9.46519 15.0267 9.0535 14.8788 8.77639 14.7717V12.8416C8.77639 10.3967 10.7738 8.40757 13.2187 8.40757C15.6638 8.40757 17.6575 10.3967 17.6575 12.8416C17.6575 13.3013 18.0318 13.6735 18.4917 13.6735C18.9508 13.6735 19.3245 13.3013 19.3245 12.8416C19.3245 9.47938 16.5809 6.74377 13.2187 6.74377Z" fill="black"/>
</svg>
