<svg width="68" height="135" viewBox="0 0 68 135" fill="none" xmlns="http://www.w3.org/2000/svg">
<path d="M37.5796 125.221C42.5951 120.205 42.5951 112.074 37.5796 107.058C32.5642 102.043 24.4326 102.043 19.4172 107.058C14.4018 112.074 14.4018 120.205 19.4172 125.221C24.4326 130.236 32.5642 130.236 37.5796 125.221Z" stroke="black" stroke-width="7" stroke-miterlimit="10"/>
<path d="M34.0004 0C15.2534 0 0 15.2519 0 33.9996C0 36.0526 1.67093 37.7228 3.72393 37.7228C5.77693 37.7228 7.44786 36.0534 7.44786 33.9996C7.44786 19.3586 19.3594 7.44709 34.0004 7.44709C48.6414 7.44709 60.5521 19.3586 60.5521 33.9996C60.5521 43.7148 56.4683 47.701 51.7361 52.3173C46.5968 57.3338 40.771 63.02 40.771 75.6637C40.771 82.4008 35.2892 87.8818 28.5529 87.8818C21.8166 87.8818 16.3363 82.4008 16.3363 75.6637C16.3363 73.6107 14.6662 71.9398 12.6124 71.9398C10.5594 71.9398 8.88847 73.6099 8.88847 75.6637C8.88847 86.5068 17.7098 95.3289 28.5529 95.3289C39.396 95.3289 48.2189 86.5068 48.2189 75.6637C48.2189 66.156 52.2608 62.2124 56.9418 57.6442C62.1255 52.5849 68 46.8522 68 33.9996C68 15.2519 52.7481 0 34.0004 0Z" fill="black"/>
<path d="M35.5058 18.114C26.474 18.114 19.1062 25.462 19.1062 34.493V39.1619C19.1062 39.1733 18.7981 39.1771 18.6326 39.1939C17.4055 39.3235 16.5262 40.4225 16.6558 41.6503C16.7855 42.8782 17.9043 43.7766 19.1176 43.6378C20.8343 43.4562 22.5312 43.8299 24.0206 44.7131C27.8063 46.959 29.0585 51.8665 26.8126 55.6515C24.5643 59.4364 19.6583 60.6871 15.8757 58.442C14.8149 57.8128 13.4436 58.1636 12.8137 59.2229C12.1838 60.2837 12.5338 61.6541 13.5946 62.2848C15.5828 63.4646 17.7685 64.0252 19.9275 64.0252C24.1815 64.0252 28.3325 61.8479 30.6562 57.9317C32.3531 55.0711 32.8351 51.7209 32.0129 48.4995C31.1908 45.2766 29.1401 42.5678 26.281 40.8702C25.4238 40.3623 24.318 39.9649 23.5737 39.6774V34.493C23.5737 27.926 28.9388 22.583 35.5058 22.583C42.0736 22.583 47.4288 27.926 47.4288 34.493C47.4288 35.7277 48.4339 36.7276 49.6694 36.7276C50.9026 36.7276 51.9062 35.7277 51.9062 34.493C51.9062 25.462 44.5369 18.114 35.5058 18.114Z" fill="black"/>
</svg>
