<svg width="208" height="107" viewBox="0 0 208 107" fill="none" xmlns="http://www.w3.org/2000/svg">
<path d="M2.22055 84V58.8H4.74055V81.48H16.3145V84H2.22055ZM33.2236 66H35.7436V84H33.2236L33.1336 80.652C32.5456 81.792 31.7236 82.716 30.6676 83.424C29.6116 84.12 28.3516 84.468 26.8876 84.468C25.5676 84.468 24.3316 84.222 23.1796 83.73C22.0276 83.226 21.0136 82.536 20.1376 81.66C19.2616 80.784 18.5776 79.77 18.0856 78.618C17.5936 77.466 17.3476 76.23 17.3476 74.91C17.3476 73.614 17.5876 72.396 18.0676 71.256C18.5596 70.116 19.2316 69.114 20.0836 68.25C20.9476 67.386 21.9436 66.714 23.0716 66.234C24.2116 65.742 25.4296 65.496 26.7256 65.496C28.2256 65.496 29.5336 65.856 30.6496 66.576C31.7656 67.284 32.6536 68.214 33.3136 69.366L33.2236 66ZM26.8336 82.02C28.1176 82.02 29.2216 81.708 30.1456 81.084C31.0696 80.448 31.7776 79.596 32.2696 78.528C32.7736 77.46 33.0256 76.284 33.0256 75C33.0256 73.68 32.7736 72.492 32.2696 71.436C31.7656 70.368 31.0516 69.522 30.1276 68.898C29.2036 68.274 28.1056 67.962 26.8336 67.962C25.5616 67.962 24.3976 68.28 23.3416 68.916C22.2976 69.54 21.4636 70.386 20.8396 71.454C20.2276 72.522 19.9216 73.704 19.9216 75C19.9216 76.308 20.2396 77.496 20.8756 78.564C21.5116 79.62 22.3516 80.46 23.3956 81.084C24.4516 81.708 25.5976 82.02 26.8336 82.02ZM55.0415 72.858V84H52.5215V73.362C52.5215 72.378 52.2815 71.484 51.8015 70.68C51.3215 69.876 50.6795 69.234 49.8755 68.754C49.0715 68.274 48.1775 68.034 47.1935 68.034C46.2215 68.034 45.3275 68.274 44.5115 68.754C43.7075 69.234 43.0655 69.876 42.5855 70.68C42.1055 71.484 41.8655 72.378 41.8655 73.362V84H39.3455V66H41.8655V68.484C42.5015 67.572 43.3295 66.846 44.3495 66.306C45.3695 65.766 46.4795 65.496 47.6795 65.496C49.0355 65.496 50.2715 65.826 51.3875 66.486C52.5035 67.146 53.3915 68.034 54.0515 69.15C54.7115 70.266 55.0415 71.502 55.0415 72.858ZM72.6048 66H75.1248V84.666C75.1248 85.818 74.8728 86.898 74.3688 87.906C73.8768 88.914 73.2048 89.796 72.3528 90.552C71.5128 91.32 70.5528 91.92 69.4728 92.352C68.3928 92.784 67.2708 93 66.1068 93C64.8588 93 63.6528 92.712 62.4888 92.136C61.3248 91.572 60.3108 90.816 59.4468 89.868C58.5948 88.92 57.9888 87.87 57.6288 86.718L59.9508 85.656C60.1788 86.556 60.6048 87.366 61.2288 88.086C61.8648 88.818 62.6088 89.394 63.4608 89.814C64.3248 90.246 65.2068 90.462 66.1068 90.462C66.9348 90.462 67.7328 90.306 68.5008 89.994C69.2808 89.694 69.9768 89.28 70.5888 88.752C71.2128 88.224 71.7048 87.606 72.0648 86.898C72.4248 86.202 72.6048 85.458 72.6048 84.666V80.688C71.9808 81.816 71.1348 82.728 70.0668 83.424C69.0108 84.12 67.7808 84.468 66.3768 84.468C65.1168 84.468 63.9288 84.222 62.8128 83.73C61.7088 83.238 60.7368 82.56 59.8968 81.696C59.0568 80.82 58.3968 79.812 57.9168 78.672C57.4488 77.532 57.2148 76.308 57.2148 75C57.2148 73.692 57.4488 72.468 57.9168 71.328C58.3968 70.176 59.0568 69.168 59.8968 68.304C60.7368 67.428 61.7088 66.744 62.8128 66.252C63.9288 65.76 65.1168 65.514 66.3768 65.514C67.7808 65.514 69.0108 65.862 70.0668 66.558C71.1348 67.242 71.9808 68.154 72.6048 69.294V66ZM66.3948 82.02C67.6428 82.02 68.7168 81.696 69.6168 81.048C70.5288 80.4 71.2308 79.542 71.7228 78.474C72.2148 77.406 72.4608 76.248 72.4608 75C72.4608 73.716 72.2088 72.546 71.7048 71.49C71.2128 70.422 70.5108 69.57 69.5988 68.934C68.6868 68.286 67.6188 67.962 66.3948 67.962C65.1708 67.962 64.0548 68.28 63.0468 68.916C62.0508 69.54 61.2588 70.386 60.6708 71.454C60.0828 72.522 59.7888 73.704 59.7888 75C59.7888 76.296 60.0888 77.478 60.6888 78.546C61.2888 79.602 62.0868 80.448 63.0828 81.084C64.0908 81.708 65.1948 82.02 66.3948 82.02Z" fill="#F0D55F"/>
<path d="M91.1228 84.468C89.3708 84.468 87.7388 84.126 86.2268 83.442C84.7268 82.758 83.4188 81.816 82.3028 80.616C81.1868 79.404 80.3108 78.012 79.6748 76.44C79.0508 74.856 78.7388 73.164 78.7388 71.364C78.7388 69.468 79.0748 67.728 79.7468 66.144C80.4308 64.56 81.3608 63.186 82.5368 62.022C83.7128 60.858 85.0448 59.958 86.5328 59.322C88.0328 58.686 89.5928 58.368 91.2128 58.368C93.0248 58.368 94.7828 58.794 96.4868 59.646C98.2028 60.486 99.7148 61.788 101.023 63.552L97.0988 65.658C96.2948 64.674 95.3708 63.942 94.3268 63.462C93.2948 62.97 92.2388 62.724 91.1588 62.724C90.1028 62.724 89.0888 62.94 88.1168 63.372C87.1568 63.804 86.2988 64.416 85.5428 65.208C84.7988 65.988 84.2108 66.912 83.7788 67.98C83.3468 69.036 83.1308 70.194 83.1308 71.454C83.1308 72.642 83.3408 73.764 83.7608 74.82C84.1808 75.864 84.7568 76.782 85.4888 77.574C86.2328 78.354 87.0908 78.966 88.0628 79.41C89.0348 79.854 90.0788 80.076 91.1948 80.076C91.9388 80.076 92.6648 79.962 93.3728 79.734C94.0928 79.494 94.7648 79.152 95.3888 78.708C96.0248 78.264 96.5888 77.724 97.0808 77.088C97.5848 76.452 98.0048 75.732 98.3408 74.928H93.7508V71.094H103.507C103.555 72.93 103.267 74.652 102.643 76.26C102.019 77.868 101.137 79.29 99.9968 80.526C98.8568 81.762 97.5308 82.728 96.0188 83.424C94.5068 84.12 92.8748 84.468 91.1228 84.468ZM105.844 77.34V66H110.236V76.188C110.236 76.896 110.41 77.544 110.758 78.132C111.106 78.708 111.568 79.17 112.144 79.518C112.732 79.854 113.374 80.022 114.07 80.022C114.79 80.022 115.438 79.854 116.014 79.518C116.59 79.17 117.052 78.708 117.4 78.132C117.748 77.544 117.922 76.896 117.922 76.188V66H122.314L122.332 84H117.94L117.922 82.362C117.298 83.01 116.56 83.526 115.708 83.91C114.856 84.282 113.944 84.468 112.972 84.468C111.664 84.468 110.47 84.15 109.39 83.514C108.31 82.866 107.446 82.008 106.798 80.94C106.162 79.86 105.844 78.66 105.844 77.34ZM133.574 84.468C131.918 84.468 130.406 84.042 129.038 83.19C127.682 82.338 126.596 81.192 125.78 79.752C124.976 78.312 124.574 76.722 124.574 74.982C124.574 73.674 124.808 72.45 125.276 71.31C125.744 70.158 126.386 69.15 127.202 68.286C128.03 67.41 128.99 66.726 130.082 66.234C131.174 65.742 132.338 65.496 133.574 65.496C134.978 65.496 136.262 65.796 137.426 66.396C138.602 66.984 139.598 67.794 140.414 68.826C141.23 69.858 141.824 71.034 142.196 72.354C142.568 73.674 142.652 75.054 142.448 76.494H129.29C129.458 77.166 129.734 77.772 130.118 78.312C130.502 78.84 130.988 79.266 131.576 79.59C132.164 79.902 132.83 80.064 133.574 80.076C134.342 80.088 135.038 79.908 135.662 79.536C136.298 79.152 136.826 78.636 137.246 77.988L141.728 79.032C140.996 80.628 139.904 81.936 138.452 82.956C137 83.964 135.374 84.468 133.574 84.468ZM129.146 73.2H138.002C137.87 72.48 137.588 71.832 137.156 71.256C136.736 70.668 136.214 70.2 135.59 69.852C134.966 69.504 134.294 69.33 133.574 69.33C132.854 69.33 132.188 69.504 131.576 69.852C130.964 70.188 130.442 70.65 130.01 71.238C129.59 71.814 129.302 72.468 129.146 73.2ZM150.827 84.324C149.891 84.264 148.985 84.078 148.109 83.766C147.245 83.442 146.477 83.004 145.805 82.452C145.133 81.9 144.617 81.24 144.257 80.472L147.965 78.888C148.109 79.128 148.343 79.386 148.667 79.662C148.991 79.926 149.375 80.148 149.819 80.328C150.275 80.508 150.773 80.598 151.313 80.598C151.769 80.598 152.201 80.538 152.609 80.418C153.029 80.286 153.365 80.088 153.617 79.824C153.881 79.56 154.013 79.218 154.013 78.798C154.013 78.354 153.857 78.012 153.545 77.772C153.245 77.52 152.861 77.334 152.393 77.214C151.937 77.082 151.493 76.962 151.061 76.854C149.921 76.626 148.859 76.272 147.875 75.792C146.903 75.312 146.117 74.694 145.517 73.938C144.929 73.17 144.635 72.246 144.635 71.166C144.635 69.978 144.947 68.952 145.571 68.088C146.207 67.224 147.029 66.558 148.037 66.09C149.057 65.622 150.155 65.388 151.331 65.388C152.759 65.388 154.067 65.688 155.255 66.288C156.455 66.876 157.403 67.71 158.099 68.79L154.625 70.842C154.457 70.554 154.223 70.29 153.923 70.05C153.623 69.798 153.281 69.594 152.897 69.438C152.513 69.27 152.111 69.174 151.691 69.15C151.151 69.126 150.659 69.174 150.215 69.294C149.771 69.414 149.411 69.618 149.135 69.906C148.871 70.194 148.739 70.578 148.739 71.058C148.739 71.514 148.919 71.856 149.279 72.084C149.639 72.3 150.071 72.468 150.575 72.588C151.091 72.708 151.583 72.84 152.051 72.984C153.107 73.332 154.097 73.758 155.021 74.262C155.957 74.766 156.707 75.384 157.271 76.116C157.835 76.848 158.105 77.724 158.081 78.744C158.081 79.908 157.733 80.928 157.037 81.804C156.341 82.668 155.441 83.328 154.337 83.784C153.245 84.24 152.075 84.42 150.827 84.324ZM166.472 84.324C165.536 84.264 164.63 84.078 163.754 83.766C162.89 83.442 162.122 83.004 161.45 82.452C160.778 81.9 160.262 81.24 159.902 80.472L163.61 78.888C163.754 79.128 163.988 79.386 164.312 79.662C164.636 79.926 165.02 80.148 165.464 80.328C165.92 80.508 166.418 80.598 166.958 80.598C167.414 80.598 167.846 80.538 168.254 80.418C168.674 80.286 169.01 80.088 169.262 79.824C169.526 79.56 169.658 79.218 169.658 78.798C169.658 78.354 169.502 78.012 169.19 77.772C168.89 77.52 168.506 77.334 168.038 77.214C167.582 77.082 167.138 76.962 166.706 76.854C165.566 76.626 164.504 76.272 163.52 75.792C162.548 75.312 161.762 74.694 161.162 73.938C160.574 73.17 160.28 72.246 160.28 71.166C160.28 69.978 160.592 68.952 161.216 68.088C161.852 67.224 162.674 66.558 163.682 66.09C164.702 65.622 165.8 65.388 166.976 65.388C168.404 65.388 169.712 65.688 170.9 66.288C172.1 66.876 173.048 67.71 173.744 68.79L170.27 70.842C170.102 70.554 169.868 70.29 169.568 70.05C169.268 69.798 168.926 69.594 168.542 69.438C168.158 69.27 167.756 69.174 167.336 69.15C166.796 69.126 166.304 69.174 165.86 69.294C165.416 69.414 165.056 69.618 164.78 69.906C164.516 70.194 164.384 70.578 164.384 71.058C164.384 71.514 164.564 71.856 164.924 72.084C165.284 72.3 165.716 72.468 166.22 72.588C166.736 72.708 167.228 72.84 167.696 72.984C168.752 73.332 169.742 73.758 170.666 74.262C171.602 74.766 172.352 75.384 172.916 76.116C173.48 76.848 173.75 77.724 173.726 78.744C173.726 79.908 173.378 80.928 172.682 81.804C171.986 82.668 171.086 83.328 169.982 83.784C168.89 84.24 167.72 84.42 166.472 84.324ZM184.445 84.468C182.789 84.468 181.277 84.042 179.909 83.19C178.553 82.338 177.467 81.192 176.651 79.752C175.847 78.312 175.445 76.722 175.445 74.982C175.445 73.674 175.679 72.45 176.147 71.31C176.615 70.158 177.257 69.15 178.073 68.286C178.901 67.41 179.861 66.726 180.953 66.234C182.045 65.742 183.209 65.496 184.445 65.496C185.849 65.496 187.133 65.796 188.297 66.396C189.473 66.984 190.469 67.794 191.285 68.826C192.101 69.858 192.695 71.034 193.067 72.354C193.439 73.674 193.523 75.054 193.319 76.494H180.161C180.329 77.166 180.605 77.772 180.989 78.312C181.373 78.84 181.859 79.266 182.447 79.59C183.035 79.902 183.701 80.064 184.445 80.076C185.213 80.088 185.909 79.908 186.533 79.536C187.169 79.152 187.697 78.636 188.117 77.988L192.599 79.032C191.867 80.628 190.775 81.936 189.323 82.956C187.871 83.964 186.245 84.468 184.445 84.468ZM180.017 73.2H188.873C188.741 72.48 188.459 71.832 188.027 71.256C187.607 70.668 187.085 70.2 186.461 69.852C185.837 69.504 185.165 69.33 184.445 69.33C183.725 69.33 183.059 69.504 182.447 69.852C181.835 70.188 181.313 70.65 180.881 71.238C180.461 71.814 180.173 72.468 180.017 73.2ZM196.266 84L196.248 66H200.64L200.658 67.602C201.27 66.954 202.002 66.444 202.854 66.072C203.706 65.688 204.624 65.496 205.608 65.496C206.268 65.496 206.928 65.592 207.588 65.784L205.86 70.212C205.404 70.032 204.948 69.942 204.492 69.942C203.784 69.942 203.136 70.116 202.548 70.464C201.972 70.8 201.51 71.262 201.162 71.85C200.826 72.426 200.658 73.068 200.658 73.776V84H196.266Z" fill="#52BDAD"/>
<g clip-path="url(#clip0_16_195)">
<path d="M106.991 46.6191C108.858 44.7519 108.858 41.7245 106.991 39.8573C105.123 37.9901 102.096 37.9901 100.229 39.8573C98.3617 41.7245 98.3617 44.7519 100.229 46.6191C102.096 48.4863 105.123 48.4863 106.991 46.6191Z" stroke="#52BDAD" stroke-width="3" stroke-miterlimit="10"/>
<path d="M105.658 0C98.6788 0 93 5.6782 93 12.6579C93 13.4222 93.6221 14.044 94.3864 14.044C95.1507 14.044 95.7728 13.4225 95.7728 12.6579C95.7728 7.20713 100.207 2.77252 105.658 2.77252C111.109 2.77252 115.543 7.20713 115.543 12.6579C115.543 16.2748 114.023 17.7589 112.261 19.4775C110.348 21.3451 108.179 23.4621 108.179 28.1693C108.179 30.6775 106.138 32.718 103.63 32.718C101.122 32.718 99.0819 30.6775 99.0819 28.1693C99.0819 27.4049 98.4601 26.7829 97.6955 26.7829C96.9312 26.7829 96.3091 27.4047 96.3091 28.1693C96.3091 32.2061 99.5933 35.4905 103.63 35.4905C107.667 35.4905 110.952 32.2061 110.952 28.1693C110.952 24.6296 112.456 23.1614 114.199 21.4607C116.129 19.5771 118.316 17.4429 118.316 12.6579C118.316 5.6782 112.638 0 105.658 0Z" fill="#52BDAD"/>
<path d="M106.219 6.74377C102.856 6.74377 100.113 9.47938 100.113 12.8416V14.5798C100.113 14.5841 99.9984 14.5855 99.9368 14.5917C99.48 14.64 99.1526 15.0491 99.2009 15.5062C99.2491 15.9634 99.6656 16.2978 100.117 16.2462C100.756 16.1786 101.388 16.3177 101.943 16.6465C103.352 17.4826 103.818 19.3097 102.982 20.7188C102.145 22.1279 100.319 22.5936 98.9104 21.7577C98.5155 21.5235 98.005 21.6541 97.7704 22.0484C97.5359 22.4434 97.6662 22.9536 98.0612 23.1884C98.8014 23.6276 99.6151 23.8363 100.419 23.8363C102.003 23.8363 103.548 23.0257 104.413 21.5677C105.045 20.5027 105.224 19.2555 104.918 18.0562C104.612 16.8563 103.849 15.8478 102.784 15.2158C102.465 15.0267 102.053 14.8788 101.776 14.7717V12.8416C101.776 10.3967 103.774 8.40757 106.219 8.40757C108.664 8.40757 110.657 10.3967 110.657 12.8416C110.657 13.3013 111.032 13.6735 111.492 13.6735C111.951 13.6735 112.324 13.3013 112.324 12.8416C112.324 9.47938 109.581 6.74377 106.219 6.74377Z" fill="#52BDAD"/>
</g>
<defs>
<clipPath id="clip0_16_195">
<rect width="26" height="50" fill="white" transform="translate(93)"/>
</clipPath>
</defs>
</svg>
